<svg id="Calque_2" data-name="Calque 2" xmlns="http://www.w3.org/2000/svg" viewBox="0 0 140 101.12"><defs><style>.cls-1{opacity:0.85;}.cls-2,.cls-7{fill:#141210;}.cls-3{fill:#be956c;}.cls-4,.cls-5,.cls-6,.cls-8{fill:none;}.cls-4,.cls-5,.cls-6,.cls-7,.cls-8{stroke:#141210;}.cls-4,.cls-5,.cls-6{stroke-linecap:round;stroke-linejoin:round;}.cls-5{stroke-width:0.25px;}.cls-6{stroke-width:0.5px;}.cls-7,.cls-8{stroke-miterlimit:10;}</style></defs><title>logo_black</title><g id="Nouveau_symbole" data-name="Nouveau symbole"><g class="cls-1"><path class="cls-2" d="M16.5,1610v1.41c0,2.67-1.42,4.2-4,4.2s-4-1.53-4-4.2v-8.69c0-2.67,1.42-4.2,4-4.2s4,1.53,4,4.2V1605h-3v-2.45a1.42,1.42,0,0,0-1.5-1.65,1.42,1.42,0,0,0-1.5,1.65v9a1.4,1.4,0,0,0,1.5,1.62,1.4,1.4,0,0,0,1.5-1.62V1610h3Z" transform="translate(-8.5 -1553.82)"/><path class="cls-2" d="M27.5,1616h-3v-17h3v7h3v-7h3v17h-3v-7h-3v7Z" transform="translate(-8.5 -1553.82)"/><path class="cls-2" d="M50.71,1616H48.06l-0.45-3H44.38l-0.45,3H41.52l2.67-17H48Zm-6-5h2.53L46,1602h0Z" transform="translate(-8.5 -1553.82)"/><path class="cls-2" d="M64.58,1616a14.82,14.82,0,0,1-.08-2.63v-2.63c0-1.55-.68-1.74-1.87-1.74H61.5v7h-2v-17h3.56c2.72,0,3.44,1,3.44,3.55v1.31c0,1.72,0,2.82-1,3.37v0c1,0.55,1,1.79,1,3.53v2.58a12.31,12.31,0,0,0,.76,2.61H64.58Zm-3.08-14v5h1.25c1,0,1.75-1.2,1.75-2.54v-1.65c0-1.19-.58-0.81-1.52-0.81H61.5Z" transform="translate(-8.5 -1553.82)"/><path class="cls-2" d="M83.5,1602.84V1605c0,2.67-1.15,5-3.78,5H78.5v6h-3v-17h4.22C82.35,1599,83.5,1600.16,83.5,1602.84Zm-5-.84v5h1.22a1.77,1.77,0,0,0,1.78-1.82v-2.51c0-1.19-.94-0.67-1.78-0.67H78.5Z" transform="translate(-8.5 -1553.82)"/><path class="cls-2" d="M94.5,1606h4v3h-4v5h5v2h-7v-17h7v3h-5v4Z" transform="translate(-8.5 -1553.82)"/><path class="cls-2" d="M110.36,1604h0.14v12h-3v-17h3.74l2.65,10H113.5v-10h3v17h-2.92Z" transform="translate(-8.5 -1553.82)"/><path class="cls-2" d="M124.5,1599h8v3h-3v14h-2v-14h-3v-3Z" transform="translate(-8.5 -1553.82)"/><path class="cls-2" d="M143.5,1606h4v3h-4v5h5v2h-8v-17h8v3h-5v4Z" transform="translate(-8.5 -1553.82)"/></g><path class="cls-3" d="M60.5,1632h-1v-6h1v2h1v-2h2v6h-2v-3h-1v3Z" transform="translate(-8.5 -1553.82)"/><path class="cls-3" d="M69.8,1632H68.62l-0.2-1H67l-0.2,1H65.72l1.19-6h1.7Zm-2.66-2h1.12l-0.55-3h0Z" transform="translate(-8.5 -1553.82)"/><path class="cls-3" d="M75.5,1626.71v1.46c0,0.2,1,.65,1,1.3v0.5a2.3,2.3,0,0,1-2.21,2H72.5v-6h1.71C75.42,1626,75.5,1625.77,75.5,1626.71Zm-1.88-.53v1.61h0.46a0.58,0.58,0,0,0,.7-0.65v-0.34a0.53,0.53,0,0,0-.59-0.63H73.62Zm0,2.49v1.88h0.67a0.52,0.52,0,0,0,.6-0.6v-0.53a0.62,0.62,0,0,0-.75-0.74H73.62Z" transform="translate(-8.5 -1553.82)"/><path class="cls-3" d="M78.5,1626h2v6h-2v-6Z" transform="translate(-8.5 -1553.82)"/><path class="cls-3" d="M82.5,1626h4v1h-1v5h-2v-5h-1v-1Z" transform="translate(-8.5 -1553.82)"/><path class="cls-3" d="M92.25,1632H91.08l-0.2-1H89.45l-0.2,1H88.18l1.19-6h1.7Zm-2.66-2h1.12l-0.55-3h0Z" transform="translate(-8.5 -1553.82)"/><path class="cls-3" d="M94.5,1626h3v1h-1v5h-1v-5h-1v-1Z" transform="translate(-8.5 -1553.82)"/><path class="cls-3" d="M32.69,1591.9l-0.11,0a0.35,0.35,0,0,1-.22-0.44,47.49,47.49,0,0,1,5.87-11.87,0.35,0.35,0,1,1,.57.39,46.79,46.79,0,0,0-5.79,11.7A0.35,0.35,0,0,1,32.69,1591.9Z" transform="translate(-8.5 -1553.82)"/><path class="cls-3" d="M38.63,1633.92a0.35,0.35,0,0,1-.29-0.16,47.45,47.45,0,0,1-5.6-12,0.35,0.35,0,0,1,.66-0.2,46.76,46.76,0,0,0,5.52,11.83A0.35,0.35,0,0,1,38.63,1633.92Z" transform="translate(-8.5 -1553.82)"/><path class="cls-3" d="M117,1633.92a0.35,0.35,0,0,1-.29-0.53,46.77,46.77,0,0,0,5.41-11.63,0.35,0.35,0,1,1,.66.2,47.46,47.46,0,0,1-5.49,11.8A0.35,0.35,0,0,1,117,1633.92Z" transform="translate(-8.5 -1553.82)"/><path class="cls-3" d="M122.57,1591.87a0.35,0.35,0,0,1-.33-0.24,46.8,46.8,0,0,0-5.78-11.67,0.35,0.35,0,0,1,.57-0.39,47.5,47.5,0,0,1,5.86,11.84,0.35,0.35,0,0,1-.22.44Z" transform="translate(-8.5 -1553.82)"/><g class="cls-1"><path class="cls-2" d="M100.24,1628.15h0.63a0.74,0.74,0,0,0-.63-0.63v0.63Z" transform="translate(-8.5 -1553.82)"/><path class="cls-2" d="M100,1628.15v-0.63a0.74,0.74,0,0,0-.63.63H100Z" transform="translate(-8.5 -1553.82)"/><path class="cls-2" d="M100.24,1628.36V1629a0.74,0.74,0,0,0,.63-0.63h-0.63Z" transform="translate(-8.5 -1553.82)"/><path class="cls-2" d="M100,1628.36H99.4a0.74,0.74,0,0,0,.63.63v-0.63Z" transform="translate(-8.5 -1553.82)"/></g><g class="cls-1"><path class="cls-2" d="M56.13,1628.16h0.63a0.74,0.74,0,0,0-.63-0.63v0.63Z" transform="translate(-8.5 -1553.82)"/><path class="cls-2" d="M55.92,1628.16v-0.63a0.74,0.74,0,0,0-.63.63h0.63Z" transform="translate(-8.5 -1553.82)"/><path class="cls-2" d="M56.13,1628.37V1629a0.74,0.74,0,0,0,.63-0.63H56.13Z" transform="translate(-8.5 -1553.82)"/><path class="cls-2" d="M55.92,1628.37H55.29a0.74,0.74,0,0,0,.63.63v-0.63Z" transform="translate(-8.5 -1553.82)"/></g><path class="cls-2" d="M85.22,1590.83a0.07,0.07,0,0,1,0-.14,2.54,2.54,0,0,0,1.42-1.25,0.07,0.07,0,1,1,.13.07,2.64,2.64,0,0,1-1.51,1.32h0Z" transform="translate(-8.5 -1553.82)"/><path class="cls-4" d="M71,1590.64" transform="translate(-8.5 -1553.82)"/><path class="cls-5" d="M70.68,1590.37" transform="translate(-8.5 -1553.82)"/><path class="cls-2" d="M71.19,1590.83h0a2.64,2.64,0,0,1-1.51-1.32,0.07,0.07,0,0,1,.13-0.07,2.53,2.53,0,0,0,1.42,1.25A0.07,0.07,0,0,1,71.19,1590.83Z" transform="translate(-8.5 -1553.82)"/><path class="cls-2" d="M75.89,1580.54l0,0L70.41,1575a0.07,0.07,0,0,1,.09-0.09l5.44,5.49a0.07,0.07,0,0,1,0,.09Z" transform="translate(-8.5 -1553.82)"/><path class="cls-2" d="M76.52,1580l0,0-5.37-5.46a0.07,0.07,0,0,1,.09-0.09l5.37,5.46a0.07,0.07,0,0,1,0,.09Z" transform="translate(-8.5 -1553.82)"/><path class="cls-6" d="M83,1577.89" transform="translate(-8.5 -1553.82)"/><path class="cls-2" d="M78.83,1581.29l0,0a0.07,0.07,0,0,1,0-.09l2.52-2.6a0.07,0.07,0,0,1,.09.09l-2.52,2.6Z" transform="translate(-8.5 -1553.82)"/><path class="cls-6" d="M83,1578.58" transform="translate(-8.5 -1553.82)"/><rect class="cls-2" x="77.52" y="1582.19" width="1.35" height="0.13" transform="translate(-1034.42 -1107.6) rotate(-41.35)"/><rect class="cls-2" x="77.85" y="1582.68" width="1.7" height="0.13" transform="translate(-1030.01 -1111.6) rotate(-41.12)"/><path class="cls-2" d="M84,1588l-0.26-.17c-1.44-.93-5.27-4.4-5.31-4.43l0.09-.1s3.42,3.1,5,4.23a29.5,29.5,0,0,0-2.41-3.19l0.09-.09a33.48,33.48,0,0,1,2.61,3.49Z" transform="translate(-8.5 -1553.82)"/><path class="cls-2" d="M81.47,1585.19l-0.17-.06a20.73,20.73,0,0,1-2.53-2.28l0.09-.09a30.4,30.4,0,0,0,2.26,2.11,15.45,15.45,0,0,0-1.39-1.92l0.09-.09a17.76,17.76,0,0,1,1.56,2.17Z" transform="translate(-8.5 -1553.82)"/><path class="cls-2" d="M82.4,1586.47a18.87,18.87,0,0,1-2-1.69l0.09-.1a19.32,19.32,0,0,0,2,1.67Z" transform="translate(-8.5 -1553.82)"/><polygon class="cls-2" points="76.11 35.97 72.16 32.08 72.25 31.98 76.2 35.88 76.11 35.97"/><rect class="cls-2" x="83.47" y="1586.33" width="0.13" height="3.77" transform="translate(-1147.23 -983.19) rotate(-47.21)"/><path class="cls-2" d="M85.24,1588.9c-0.22-.27-2.18-2.61-2.29-2.88l0.12,0c0.07,0.19,1.39,1.81,2.26,2.85Z" transform="translate(-8.5 -1553.82)"/><rect class="cls-2" x="84.28" y="1587.41" width="0.13" height="1.64" transform="translate(-771.52 -1311.53) rotate(-29.15)"/><rect class="cls-2" x="62.85" y="28.55" width="0.13" height="0.42"/><rect class="cls-2" x="63.42" y="28.55" width="0.13" height="0.42"/><rect class="cls-2" x="63.94" y="28.55" width="0.13" height="0.42"/><polygon class="cls-2" points="71.53 28.86 71.23 28.73 77 28.72 77 28.85 71.53 28.86"/><rect class="cls-2" x="62.01" y="28.27" width="0.13" height="1.15"/><polygon class="cls-2" points="62 29.18 62 29.18 62 29.18 69.42 29.18 69.28 29.18 62 29.18 62 29.18"/><path class="cls-2" d="M74.58,1585.46l0-.16a5.61,5.61,0,0,1,1.68-2.48l0.08-.08,0.09,0.1a6.69,6.69,0,0,0-1.68,2.32,17,17,0,0,0,2.39-2l0.1,0.08a18.43,18.43,0,0,1-2.56,2.18Z" transform="translate(-8.5 -1553.82)"/><path class="cls-2" d="M71.94,1588.4l0.05-.17a23.57,23.57,0,0,1,2.48-3.62l0.1,0.09a30.08,30.08,0,0,0-2.38,3.39,19.3,19.3,0,0,0,5-4.32l0.11,0.07a20.13,20.13,0,0,1-5.19,4.46Z" transform="translate(-8.5 -1553.82)"/><path class="cls-2" d="M73.79,1586.36l-0.06-.12a30.51,30.51,0,0,0,3.81-3.14l0.09,0.1A29.69,29.69,0,0,1,73.79,1586.36Z" transform="translate(-8.5 -1553.82)"/><path class="cls-2" d="M70.93,1589.06l-0.1-.08,0.16-.23c0.38-.55,1.26-1.82,1.59-2.19l0.1,0.09c-0.33.36-1.2,1.63-1.58,2.17Z" transform="translate(-8.5 -1553.82)"/><polygon class="cls-2" points="62.78 35.72 62.68 35.64 64.37 33.97 64.46 34.06 62.78 35.72"/><path class="cls-2" d="M71.57,1589.71l-0.12-.06a27.24,27.24,0,0,0,2.52-2.53l0.11,0.07A25.82,25.82,0,0,1,71.57,1589.71Z" transform="translate(-8.5 -1553.82)"/><path class="cls-2" d="M85.94,1588.66l0-.24-3-3.2-1.12-1.13a0.32,0.32,0,0,0-.31-0.09,0.48,0.48,0,0,1-.33-0.07,0.72,0.72,0,0,1-.35-0.6l0-.1a1.2,1.2,0,0,0-.25-0.36h5.09a0.52,0.52,0,0,0,.29-0.09l0.41-.31a0.12,0.12,0,0,0,.05-0.1,0.09,0.09,0,0,0,0-.08l-0.56-.32a0.45,0.45,0,0,0-.21-0.05h-6.1c0.4-.39.9-0.93,1.38-1.45s1.15-1.24,1.56-1.62a0.79,0.79,0,0,1,.89-0.09,8.77,8.77,0,0,1,1.17.88l0.32,0.27a0.44,0.44,0,0,0,.59,0l0.8-.82,0.11-.11a0.29,0.29,0,0,0,0-.4l-0.29-.27a0.31,0.31,0,0,0-.36,0,1.47,1.47,0,0,1-.6-0.37l-0.2-.21A10.12,10.12,0,0,0,83,1576a12.18,12.18,0,0,0-5.27-2,0.12,0.12,0,0,0-.1.06,0.11,0.11,0,0,0,0,.12,2.61,2.61,0,0,0,.88.8,12.62,12.62,0,0,1,1.31.61,5.14,5.14,0,0,1,1.6,1.2,0.77,0.77,0,0,1,0,1.05s-1.91,2.06-2.27,2.39-0.91.81-1.09,1l-1.15-.91v-0.14a0.5,0.5,0,0,0-.25-0.3,0.77,0.77,0,0,0,0-.13,1,1,0,0,0-.29-0.63l-4.94-5.07-1.33,1.15,5,5a1,1,0,0,0,.63.31h0.13a0.5,0.5,0,0,0,.3.26h0.15c0.25,0.32.34,0.74,0.61,1.09H70.5v-0.55H70.22a0.89,0.89,0,0,1,.28.14v1.74a3.62,3.62,0,0,0-.22.76H70.5v-1h5.67c-0.9,1-5.31,5.42-5.59,5.71a0.9,0.9,0,0,0-.48.46,0.38,0.38,0,0,0,.06.14,2.09,2.09,0,0,0,1.06,1,1.07,1.07,0,0,0,.29.05h0a4.43,4.43,0,0,0,.48-0.49l6.07-6.15a4.41,4.41,0,0,0,1,1l0.1,0a0.74,0.74,0,0,1,.6.37,0.44,0.44,0,0,1,.06.32,0.3,0.3,0,0,0,.08.3l1.11,1.13,3.13,3,0,0,0.24,0.32a1.81,1.81,0,0,0,.47.78h0a0.7,0.7,0,0,1,.24-0.39,2.74,2.74,0,0,0,1.21-1.16c0.05-.1.16-0.27,0.16-0.29h0A1.16,1.16,0,0,0,85.94,1588.66Zm-0.28-6.57,0.51,0.3-0.38.29a0.39,0.39,0,0,1-.21.06H80.37a4.6,4.6,0,0,0-.67-0.61,0.55,0.55,0,0,0-.34,0l-0.08-.07h6.23A0.32,0.32,0,0,1,85.66,1582.09Zm-6.45-1.71c0.36-.34,2.19-2.31,2.27-2.39a0.91,0.91,0,0,0,0-1.22,5.26,5.26,0,0,0-1.64-1.23,12.76,12.76,0,0,0-1.32-.62,2.45,2.45,0,0,1-.8-0.73,12.2,12.2,0,0,1,5.17,1.93,10.26,10.26,0,0,1,1.77,1.64l0.22,0.22a1.81,1.81,0,0,0,.58.38,0.05,0.05,0,0,0,0,.07h0.09l0,0h0a0.18,0.18,0,0,1,.24,0l0.29,0.27a0.16,0.16,0,0,1,0,.22L86,1579l-0.8.82a0.31,0.31,0,0,1-.42,0l-0.32-.27a9,9,0,0,0-1.19-.9,0.92,0.92,0,0,0-1,.1c-0.41.38-1,1-1.56,1.63s-1.11,1.2-1.52,1.59l-0.23-.2a0.17,0.17,0,0,0-.14,0,0.31,0.31,0,0,1-.16,0,4.42,4.42,0,0,1-.52-0.37C78.33,1581.16,78.9,1580.67,79.21,1580.38Zm-8.71,2.36V1584H70.28s0-.38,0-0.39l-0.16-1.94,0.4-.19V1582H77c0.21,0.29.46,0.51,0.47,0.56a0.33,0.33,0,0,1-.11.13H70.5Zm1,7.5a0.94,0.94,0,0,1-.23-0.06,2,2,0,0,1-1-1l0-.1a0.68,0.68,0,0,1,.34-0.38H70.5v-0.19c0-.06,5.35-4.56,5.86-5.56h1.25l0.05,0,0.32,0.31a0.55,0.55,0,0,0-.19.27l-6.29,6.15h0l0.18,0A1.56,1.56,0,0,1,71.5,1590.24Zm14.63-1a2.07,2.07,0,0,1-1,.95l-0.19.07a1,1,0,0,1-.37-0.43l0,0H84.24l-3.11-3L80,1585.63a0.17,0.17,0,0,1,0-.17,0.57,0.57,0,0,0-.06-0.42,0.86,0.86,0,0,0-.7-0.44l-0.09,0a4.77,4.77,0,0,1-1-1,0.43,0.43,0,0,1,0-.28v0l-0.38-.4a0.09,0.09,0,0,1,0-.08,0.46,0.46,0,0,0,0-.24c-0.05-.18-1.15-1.58-1.37-1.85l0,0H76.13a0.54,0.54,0,0,1-.21-0.23l0,0H75.71a0.88,0.88,0,0,1-.55-0.27l-4.89-4.93,1.13-1,4.85,5a0.84,0.84,0,0,1,.25.54,0.62,0.62,0,0,1,0,.14v0l0,0a0.56,0.56,0,0,1,.23.21v0.21l0,0c0.28,0.23,1.66,1.35,1.84,1.41a0.44,0.44,0,0,0,.22,0h0l0.46,0.4h0a0.46,0.46,0,0,1,.28,0,4.77,4.77,0,0,1,1,1l0,0.09a0.85,0.85,0,0,0,.42.7,0.61,0.61,0,0,0,.42.08,0.18,0.18,0,0,1,.17.06l1.11,1.13,3,3.16v0.26l0,0a1,1,0,0,1,.43.38A0.55,0.55,0,0,1,86.13,1589.23Z" transform="translate(-8.5 -1553.82)"/><path class="cls-2" d="M84.8,1579.21l0,0a0.07,0.07,0,0,1,0-.09l0.86-.87a0.07,0.07,0,1,1,.09.09l-0.86.87Z" transform="translate(-8.5 -1553.82)"/><path class="cls-2" d="M83.18,1578.32a1.15,1.15,0,0,1-.7-0.22,1.82,1.82,0,0,1-.61-1.11,0.07,0.07,0,0,1,.06-0.07,0.07,0.07,0,0,1,.07.06,1.71,1.71,0,0,0,.56,1,1.1,1.1,0,0,0,.86.18,0.06,0.06,0,0,1,.08.05,0.07,0.07,0,0,1-.05.08Z" transform="translate(-8.5 -1553.82)"/><path class="cls-2" d="M82.29,1576.48a0.07,0.07,0,0,1-.05,0,10.48,10.48,0,0,0-3.23-1.71,0.07,0.07,0,0,1,0-.14,10.35,10.35,0,0,1,3.29,1.75,0.07,0.07,0,0,1,0,.1Z" transform="translate(-8.5 -1553.82)"/><path class="cls-2" d="M85,1578.83h0.16a2.6,2.6,0,0,1-.86-0.83,0.07,0.07,0,1,1,.11-0.07,2.51,2.51,0,0,0,.81.78,1,1,0,0,1-.16.09A0.07,0.07,0,0,1,85,1578.83Z" transform="translate(-8.5 -1553.82)"/><path class="cls-7" d="M86,1588.56v-0.21L83,1585.1,81.88,1584a0.52,0.52,0,0,0-.36-0.16l-0.13,0a0.43,0.43,0,0,1-.18-0.06,0.54,0.54,0,0,1-.25-0.47l0-.11a0.45,0.45,0,0,0-.06-0.13h4.71a0.72,0.72,0,0,0,.4-0.13l0.4-.3a0.3,0.3,0,0,0,.13-0.26,0.28,0.28,0,0,0-.14-0.23l-0.56-.32a0.63,0.63,0,0,0-.3-0.08H79.86c0.33-.35.71-0.75,1.07-1.14,0.56-.61,1.15-1.24,1.55-1.61a0.56,0.56,0,0,1,.38-0.13,0.57,0.57,0,0,1,.29.07,8.75,8.75,0,0,1,1.14.87l0.32,0.27a0.62,0.62,0,0,0,.4.14,0.64,0.64,0,0,0,.45-0.19l0.8-.82,0.11-.12a0.48,0.48,0,0,0,0-.66l-0.3-.27a0.5,0.5,0,0,0-.5-0.09,1.59,1.59,0,0,1-.46-0.31l-0.19-.19a10.19,10.19,0,0,0-1.84-1.38,10.31,10.31,0,0,0-5.37-1.66h0v-0.32a0.39,0.39,0,0,0-.24,0,0.18,0.18,0,0,0,0,.23,2.67,2.67,0,0,0,1,.83,11.74,11.74,0,0,1,1.29.59,5,5,0,0,1,1.55,1.15,0.57,0.57,0,0,1,0,.79s-1.91,2.05-2.26,2.38-0.76.65-1,.86a2.5,2.5,0,0,1-1-.76v-0.05a0.47,0.47,0,0,0-.21-0.4,0.42,0.42,0,0,0,0,0,1.14,1.14,0,0,0-.33-0.75l-5.06-5.19-1.61,1.4,5.13,5.17a1.21,1.21,0,0,0,.75.36s0,0.25,0,.25a1.22,1.22,0,0,0,.39.51h0.06a0.89,0.89,0,0,1,.48.47l-5.66-.26v-0.55H70.22c-0.18,0-.22.15-0.22,0.32v1.74a2.52,2.52,0,0,0,.28,1.26H71v-1h4.71c-0.78,1-2.45,2.29-5,5l-0.25.15a0.84,0.84,0,0,0-.55.59,0.47,0.47,0,0,0,.08.21,2.26,2.26,0,0,0,1.15,1.08,1.13,1.13,0,0,0,.36.08,0.91,0.91,0,0,0,.63-0.57l5.91-6a3.59,3.59,0,0,0,1,.89l0.11,0a0.56,0.56,0,0,1,.47.26,0.34,0.34,0,0,1,0,.18,0.49,0.49,0,0,0,.13.49l1.12,1.14,3.2,3.1,0.21,0.47a2.57,2.57,0,0,0,.57.94h0a1.88,1.88,0,0,1,.31-0.56,2.88,2.88,0,0,0,1.2-1.33,1,1,0,0,0,.08-0.35A0.81,0.81,0,0,0,86,1588.56Zm0,0.58s0.15,0.05.09,0.15a2.18,2.18,0,0,1-1,1.07,0.23,0.23,0,0,0-.16.14h0a1,1,0,0,1-.47-0.53l-0.24,0,0,0-3.13-3-1.12-1.14a0.3,0.3,0,0,1-.08-0.3,0.43,0.43,0,0,0-.06-0.32,0.74,0.74,0,0,0-.6-0.37l-0.1,0a4.35,4.35,0,0,1-1-1L72,1589.88a2.08,2.08,0,0,1-.2.29,0.46,0.46,0,0,1-.29.2,1,1,0,0,1-.29-0.07,2.1,2.1,0,0,1-1.06-1,0.39,0.39,0,0,1-.06-0.15c0-.19.36-0.1,0.48-0.18,0.28-.29,4.69-4.46,5.59-5.46H70.28a0.44,0.44,0,0,1-.28-0.26v-1.74a0.23,0.23,0,0,1,.22-0.14H71v0.55h6.13c-0.27-.35-0.6-0.77-0.85-1.09H76.13a0.5,0.5,0,0,1-.3-0.26H75.7a1,1,0,0,1-.63-0.31l-5-5,1.33-1.15,4.94,5.07a1,1,0,0,1,.29.63,0.59,0.59,0,0,1,0,.13,0.49,0.49,0,0,1,.25.3v0.14l1.15,0.91c0.18-.15.77-0.66,1.09-1s2.25-2.37,2.27-2.39a0.77,0.77,0,0,0,0-1.05,5.11,5.11,0,0,0-1.6-1.2,12.5,12.5,0,0,0-1.31-.61,2.63,2.63,0,0,1-.88-0.8,0.11,0.11,0,0,1,0-.12,0.12,0.12,0,0,1,.1-0.06A12.21,12.21,0,0,1,83,1576a10.2,10.2,0,0,1,1.8,1.67,2,2,0,0,0,.21.21,1.45,1.45,0,0,0,.6.37,0.31,0.31,0,0,1,.36,0l0.29,0.27a0.29,0.29,0,0,1,0,.4l-0.11.11-0.8.82a0.44,0.44,0,0,1-.59,0l-0.32-.27a8.7,8.7,0,0,0-1.17-.88,0.8,0.8,0,0,0-.89.09c-0.41.38-1,1-1.56,1.62s-1,1.07-1.38,1.45h6.1a0.46,0.46,0,0,1,.21.05l0.55,0.32a0.09,0.09,0,0,1,0,.08,0.12,0.12,0,0,1-.05.1l-0.41.31a0.52,0.52,0,0,1-.29.09H80.49a1.19,1.19,0,0,1,.25.36l0,0.1a0.72,0.72,0,0,0,.35.6,0.48,0.48,0,0,0,.33.07,0.32,0.32,0,0,1,.3.09l1.11,1.13,3,3.2-0.16.24a0.67,0.67,0,0,1,.31.47h0Z" transform="translate(-8.5 -1553.82)"/><path class="cls-8" d="M86,1589.13h0s0.15,0.05.09,0.15a2.18,2.18,0,0,1-1,1.07,0.23,0.23,0,0,0-.16.14h0a1,1,0,0,1-.47-0.53l-0.24,0,0,0-3.13-3-1.12-1.14a0.3,0.3,0,0,1-.08-0.3,0.43,0.43,0,0,0-.06-0.32,0.74,0.74,0,0,0-.6-0.37l-0.1,0a4.35,4.35,0,0,1-1-1L72,1589.88a2.08,2.08,0,0,1-.2.29,0.46,0.46,0,0,1-.29.2,1,1,0,0,1-.29-0.07,2.1,2.1,0,0,1-1.06-1,0.39,0.39,0,0,1-.06-0.15c0-.19.36-0.1,0.48-0.18,0.28-.29,4.69-4.46,5.59-5.46H70.28a0.44,0.44,0,0,1-.28-0.26v-1.74a0.23,0.23,0,0,1,.22-0.14H71v0.55h6.13c-0.27-.35-0.6-0.77-0.85-1.09H76.13a0.5,0.5,0,0,1-.3-0.26H75.7a1,1,0,0,1-.63-0.31l-5-5,1.33-1.15,4.94,5.07a1,1,0,0,1,.29.63,0.59,0.59,0,0,1,0,.13,0.49,0.49,0,0,1,.25.3v0.14l1.15,0.91c0.18-.15.77-0.66,1.09-1s2.25-2.37,2.27-2.39a0.77,0.77,0,0,0,0-1.05,5.11,5.11,0,0,0-1.6-1.2,12.5,12.5,0,0,0-1.31-.61,2.63,2.63,0,0,1-.88-0.8,0.11,0.11,0,0,1,0-.12,0.12,0.12,0,0,1,.1-0.06A12.21,12.21,0,0,1,83,1576a10.2,10.2,0,0,1,1.8,1.67,2,2,0,0,0,.21.21,1.45,1.45,0,0,0,.6.37,0.31,0.31,0,0,1,.36,0l0.29,0.27a0.29,0.29,0,0,1,0,.4l-0.11.11-0.8.82a0.44,0.44,0,0,1-.59,0l-0.32-.27a8.7,8.7,0,0,0-1.17-.88,0.8,0.8,0,0,0-.89.09c-0.41.38-1,1-1.56,1.62s-1,1.07-1.38,1.45h6.1a0.46,0.46,0,0,1,.21.05l0.55,0.32a0.09,0.09,0,0,1,0,.08,0.12,0.12,0,0,1-.05.1l-0.41.31a0.52,0.52,0,0,1-.29.09H80.49a1.19,1.19,0,0,1,.25.36l0,0.1a0.72,0.72,0,0,0,.35.6,0.48,0.48,0,0,0,.33.07,0.32,0.32,0,0,1,.3.09l1.11,1.13,3,3.2-0.16.24A0.67,0.67,0,0,1,86,1589.13Z" transform="translate(-8.5 -1553.82)"/><path class="cls-8" d="M86,1589.13h0s0.15,0.05.09,0.15a2.18,2.18,0,0,1-1,1.07,0.23,0.23,0,0,0-.16.14h0a1,1,0,0,1-.47-0.53l-0.24,0,0,0-3.13-3-1.12-1.14a0.3,0.3,0,0,1-.08-0.3,0.43,0.43,0,0,0-.06-0.32,0.74,0.74,0,0,0-.6-0.37l-0.1,0a4.35,4.35,0,0,1-1-1L72,1589.88a2.08,2.08,0,0,1-.2.29,0.46,0.46,0,0,1-.29.2,1,1,0,0,1-.29-0.07,2.1,2.1,0,0,1-1.06-1,0.39,0.39,0,0,1-.06-0.15c0-.19.36-0.1,0.48-0.18,0.28-.29,4.69-4.46,5.59-5.46H70.28a0.44,0.44,0,0,1-.28-0.26v-1.74a0.23,0.23,0,0,1,.22-0.14H71v0.55h6.13c-0.27-.35-0.6-0.77-0.85-1.09H76.13a0.5,0.5,0,0,1-.3-0.26H75.7a1,1,0,0,1-.63-0.31l-5-5,1.33-1.15,4.94,5.07a1,1,0,0,1,.29.63,0.59,0.59,0,0,1,0,.13,0.49,0.49,0,0,1,.25.3v0.14l1.15,0.91c0.18-.15.77-0.66,1.09-1s2.25-2.37,2.27-2.39a0.77,0.77,0,0,0,0-1.05,5.11,5.11,0,0,0-1.6-1.2,12.5,12.5,0,0,0-1.31-.61,2.63,2.63,0,0,1-.88-0.8,0.11,0.11,0,0,1,0-.12,0.12,0.12,0,0,1,.1-0.06A12.21,12.21,0,0,1,83,1576a10.2,10.2,0,0,1,1.8,1.67,2,2,0,0,0,.21.21,1.45,1.45,0,0,0,.6.37,0.31,0.31,0,0,1,.36,0l0.29,0.27a0.29,0.29,0,0,1,0,.4l-0.11.11-0.8.82a0.44,0.44,0,0,1-.59,0l-0.32-.27a8.7,8.7,0,0,0-1.17-.88,0.8,0.8,0,0,0-.89.09c-0.41.38-1,1-1.56,1.62s-1,1.07-1.38,1.45h6.1a0.46,0.46,0,0,1,.21.05l0.55,0.32a0.09,0.09,0,0,1,0,.08,0.12,0.12,0,0,1-.05.1l-0.41.31a0.52,0.52,0,0,1-.29.09H80.49a1.19,1.19,0,0,1,.25.36l0,0.1a0.72,0.72,0,0,0,.35.6,0.48,0.48,0,0,0,.33.07,0.32,0.32,0,0,1,.3.09l1.11,1.13,3,3.2-0.16.24A0.67,0.67,0,0,1,86,1589.13Z" transform="translate(-8.5 -1553.82)"/><g class="cls-1"><path class="cls-2" d="M39.38,1569.33l0.9-.83,3,2-2.38-2.59,0.85-.78,4.84,5.26-0.9.83-2.9-2,2.32,2.52-0.88.81Z" transform="translate(-8.5 -1553.82)"/><path class="cls-2" d="M49.09,1567.27l1.8,1.86-1,.74-1-1.08-0.73.54,0.71,1.32-1,.73-1.22-2.27L44.48,1565l1.29-.95ZM48,1568l-1.52-1.57,1,1.92Z" transform="translate(-8.5 -1553.82)"/><path class="cls-2" d="M51,1560.7l0.58,1-0.85.5,3,5.18-1.07.63-3-5.18-0.85.5-0.58-1Z" transform="translate(-8.5 -1553.82)"/><path class="cls-2" d="M53.16,1559.6l1.12-.51,1.25,2.73,0.66-.3L55,1558.78l1.12-.51,3,6.5-1.12.51-1.25-2.73-0.66.3,1.25,2.73-1.12.51Z" transform="translate(-8.5 -1553.82)"/><path class="cls-2" d="M63,1560.62l1.15,2.32-1.18.4L62.31,1562l-0.86.29,0.27,1.47-1.18.4-0.48-2.53L59.32,1557l1.52-.51Zm-1.21.34-1-2,0.41,2.14Z" transform="translate(-8.5 -1553.82)"/><path class="cls-2" d="M64.17,1555.55l1.19-.27,1.57,3.26-0.76-3.43,1.13-.25,1.55,7-1.19.27-1.51-3.17,0.74,3.34-1.17.26Z" transform="translate(-8.5 -1553.82)"/><path class="cls-2" d="M76.07,1561l-1.6.09-1-4.54L73,1554l1.25-.07,1,5.55,0.34-5.63,1.25-.07-0.2,2.58Z" transform="translate(-8.5 -1553.82)"/><path class="cls-2" d="M81.88,1558.52l0.25,2.57-1.25,0-0.15-1.49-0.91,0L79.56,1561l-1.24,0,0.45-2.54,0.93-4.56,1.6,0.06Zm-1.25-.11-0.21-2.17L80,1558.38Z" transform="translate(-8.5 -1553.82)"/><path class="cls-2" d="M84.74,1554.18l1.21,0.17,0.32,3.6,0.49-3.48,1.15,0.16-1,7.07-1.21-.17-0.3-3.5-0.48,3.39-1.18-.17Z" transform="translate(-8.5 -1553.82)"/><path class="cls-2" d="M90.56,1555.14l1.19,0.3L91.69,1559l0.85-3.41,1.12,0.28-1.73,6.93-1.19-.3,0.06-3.51L90,1562.36l-1.16-.29Z" transform="translate(-8.5 -1553.82)"/><path class="cls-2" d="M97.27,1563.16a1.6,1.6,0,0,1-3-1.1l2-5.37,1.16,0.42-2,5.37a0.37,0.37,0,1,0,.69.25l2-5.37,1.16,0.42Z" transform="translate(-8.5 -1553.82)"/><path class="cls-2" d="M101.65,1558.83l2.62,1.26-0.49,1-1.51-.73-0.81,1.68,1.3,0.63-0.5,1-1.3-.63-1.3,2.7-1.11-.54Z" transform="translate(-8.5 -1553.82)"/><path class="cls-2" d="M106.37,1561.25l2.49,1.51-0.59,1-1.43-.87-1,1.59,1.23,0.75-0.59,1-1.23-.75-1.56,2.56-1.06-.64Z" transform="translate(-8.5 -1553.82)"/><path class="cls-2" d="M110.84,1564.12l2.32,1.75-0.69.91-1.34-1-1.12,1.49,1.15,0.87-0.69.91-1.15-.87-1.12,1.49,1.34,1-0.69.91-2.32-1.75Z" transform="translate(-8.5 -1553.82)"/><path class="cls-2" d="M110.22,1572.72l4.85-5.24,0.91,0.84-4.08,4.41,1.23,1.14-0.77.84Z" transform="translate(-8.5 -1553.82)"/></g><g class="cls-1"><path class="cls-2" d="M44.73,1640.65a1.14,1.14,0,0,1-1.58-1.65l2.1-2a1.15,1.15,0,0,1,1.58,1.65l-0.5.48-0.61-.64,0.5-.48a0.24,0.24,0,0,0,0-.38h0a0.23,0.23,0,0,0-.38,0l-2.1,2a0.26,0.26,0,1,0,.36.38l0.5-.48,0.61,0.64Z" transform="translate(-8.5 -1553.82)"/><path class="cls-2" d="M47.62,1643.27a1.14,1.14,0,0,1-1.72-1.5l1.91-2.19a1.14,1.14,0,0,1,1.72,1.5Zm1.25-2.77a0.24,0.24,0,0,0,0-.38h0a0.23,0.23,0,0,0-.37,0l-1.91,2.19a0.26,0.26,0,1,0,.39.34Z" transform="translate(-8.5 -1553.82)"/><path class="cls-2" d="M50.71,1644.78l2.52-2.16,0.71,0.5-2.8,4-0.69-.49,1.29-1.82L50,1646.3l-0.51-.36,0.86-2.14-1.3,1.83-0.7-.49,2.8-4,0.71,0.5Z" transform="translate(-8.5 -1553.82)"/><path class="cls-2" d="M55.13,1643.84l1,0.57a0.93,0.93,0,0,1,.41,1.44l-0.35.62A1,1,0,0,1,55,1647a2,2,0,0,1-.48-0.21l0,0-1,1.77-0.77-.43Zm0.38,1.11-0.62,1.1,0.09,0.05,0.17,0.08a0.25,0.25,0,0,0,.27-0.14l0.35-.62a0.24,0.24,0,0,0-.09-0.37Z" transform="translate(-8.5 -1553.82)"/><path class="cls-2" d="M58.7,1649.18l-0.51,1.68-0.8-.38,0.3-1-0.59-.27-0.56.85-0.8-.38,1-1.46,1.81-2.6,1,0.48Zm-0.79-.42,0.43-1.42-0.81,1.24Z" transform="translate(-8.5 -1553.82)"/><path class="cls-2" d="M61.67,1649.2l1,0.38-0.64,1.73a1.14,1.14,0,0,1-2.14-.79l1-2.73a1.15,1.15,0,0,1,2.14.79l-0.24.65-0.83-.3,0.24-.65a0.24,0.24,0,0,0-.15-0.35h0a0.23,0.23,0,0,0-.34.17l-1,2.73a0.26,0.26,0,1,0,.49.18l0.37-1-0.21-.08Z" transform="translate(-8.5 -1553.82)"/><path class="cls-2" d="M64.71,1648.09l0.84,0.23-0.07,2.46,0.64-2.3,0.79,0.22-1.3,4.67-0.84-.23,0.08-2.39L64.23,1653l-0.82-.23Z" transform="translate(-8.5 -1553.82)"/><path class="cls-2" d="M69.75,1653.25a1.14,1.14,0,0,1-2.24-.43l0.54-2.86a1.14,1.14,0,0,1,2.24.43Zm-0.32-3a0.24,0.24,0,0,0-.2-0.32h0a0.23,0.23,0,0,0-.3.22L68.37,1653a0.26,0.26,0,1,0,.51.1Z" transform="translate(-8.5 -1553.82)"/><path class="cls-2" d="M71.82,1649.64l0.86,0.09,0.33,2.44,0.26-2.38,0.82,0.09-0.52,4.82-0.86-.09-0.31-2.37-0.25,2.31-0.85-.09Z" transform="translate(-8.5 -1553.82)"/><path class="cls-2" d="M80,1653.87a1.14,1.14,0,0,1-2.28,0L77.62,1651a1.14,1.14,0,0,1,2.28,0v0.69l-0.88,0v-0.54c0-.18-0.09-0.13-0.26-0.13h0c-0.17,0-.25,0-0.25.14l0.06,2.84a0.21,0.21,0,0,0,.26.23,0.25,0.25,0,0,0,.26-0.3v-0.7l0.88,0v0.68Z" transform="translate(-8.5 -1553.82)"/><path class="cls-2" d="M81.22,1649.92l0.88-.09,0.2,2,0.52-.05-0.2-2,0.88-.09,0.47,4.83-0.88.09-0.2-2-0.52.05,0.2,2-0.88.09Z" transform="translate(-8.5 -1553.82)"/><path class="cls-2" d="M87.64,1652.16l0.56,1.67-0.87.16L87,1653l-0.64.12,0,1-0.87.16-0.06-1.75,0-3.16,1.12-.2Zm-0.89.12-0.47-1.41,0.05,1.48Z" transform="translate(-8.5 -1553.82)"/><path class="cls-2" d="M88.48,1648.79l1.12-.3a0.93,0.93,0,0,1,1.3.74l0.18,0.69a0.81,0.81,0,0,1-.34,1l1.4,1.94-0.93.25-1.12-1.86h0l0.54,2-0.85.23Zm1.05,0.52,0.33,1.22,0.1,0,0.18-.06a0.25,0.25,0,0,0,.09-0.29l-0.18-.69a0.24,0.24,0,0,0-.32-0.2Z" transform="translate(-8.5 -1553.82)"/><path class="cls-2" d="M92,1647.8l1.09-.39a0.94,0.94,0,0,1,1.35.63l0.24,0.67a1,1,0,0,1-.38,1.19,2,2,0,0,1-.48.23l-0.05,0,0.68,1.92-0.83.3Zm1.09,0.43,0.42,1.19,0.1,0,0.17-.08a0.25,0.25,0,0,0,.07-0.3l-0.24-.67a0.24,0.24,0,0,0-.34-0.17Z" transform="translate(-8.5 -1553.82)"/><path class="cls-2" d="M95.26,1646.56l1.89-.85,0.32,0.71-1.09.49,0.52,1.15,0.94-.42,0.32,0.71-0.94.42,0.52,1.15,1.09-.49,0.32,0.71-1.89.85Z" transform="translate(-8.5 -1553.82)"/><path class="cls-2" d="M98.3,1645.15l0.76-.42,1.67,1.81-1.15-2.09,0.72-.4,2.34,4.25-0.76.42-1.61-1.76,1.12,2-0.75.41Z" transform="translate(-8.5 -1553.82)"/><path class="cls-2" d="M103.22,1642.16l0.43,0.64-0.58.39,2.26,3.39-0.73.49-2.26-3.39-0.58.39-0.43-.64Z" transform="translate(-8.5 -1553.82)"/><path class="cls-2" d="M104.22,1641.41l0.7-.54,3,3.84-0.7.54Z" transform="translate(-8.5 -1553.82)"/><path class="cls-2" d="M106.05,1640l1.55-1.38,0.51,0.58-0.89.79,0.84,0.95,0.77-.68,0.51,0.58-0.77.68,0.84,0.95,0.89-.79,0.51,0.58-1.55,1.38Z" transform="translate(-8.5 -1553.82)"/><path class="cls-2" d="M108.51,1637.7l0.79-.84a0.93,0.93,0,0,1,1.49-.05l0.52,0.49a0.81,0.81,0,0,1,.22,1l2.21,0.92-0.66.7-1.93-1,0,0,1.52,1.43-0.6.64Zm1.17-.11,0.92,0.87,0.07-.08a0.73,0.73,0,0,0,.12-0.14,0.25,0.25,0,0,0-.07-0.3l-0.52-.49a0.24,0.24,0,0,0-.38,0Z" transform="translate(-8.5 -1553.82)"/></g></g></svg>