<svg id="Calque_1" data-name="Calque 1" xmlns="http://www.w3.org/2000/svg" viewBox="0 0 402 285.48"><defs><style>.cls-1,.cls-6{fill:#fff;}.cls-2{fill:#c49a6d;}.cls-3,.cls-4,.cls-5,.cls-7{fill:none;}.cls-3,.cls-4,.cls-5,.cls-6,.cls-7{stroke:#fff;}.cls-3,.cls-4,.cls-5{stroke-linecap:round;stroke-linejoin:round;}.cls-4{stroke-width:0.25px;}.cls-5{stroke-width:0.5px;}.cls-6,.cls-7{stroke-miterlimit:10;}</style></defs><title>logo</title><path class="cls-1" d="M464,405v5.92c0,7.68-4.09,12.08-11.5,12.08S441,418.61,441,410.92v-25c0-7.68,4.09-12.08,11.5-12.08s11.5,4.39,11.5,12.08V391h-8v-5.53c0-3.43-1.1-4.73-3.5-4.73s-3.5,1.3-3.5,4.73V411.4c0,3.43,1.1,4.67,3.5,4.67s3.5-1.23,3.5-4.67V405h8Z" transform="translate(-441 -253.29)"/><path class="cls-1" d="M496,422h-7V374h7v21h9V374h8v48h-8V402h-9v20Z" transform="translate(-441 -253.29)"/><path class="cls-1" d="M563.06,422h-7.62l-1.3-8h-9.26l-1.3,8h-6.93l7.69-48h11Zm-17.22-15h7.27l-3.57-24H549.4Z" transform="translate(-441 -253.29)"/><path class="cls-1" d="M602.92,422c-0.41-1-.92-1.54-0.92-5.45V409c0-4.46-1.27-6-4.7-6H595v19h-8V374h11.53c7.82,0,11.47,4.05,11.47,11.47v3.77c0,4.94-2,8.1-5,9.67v0.14c4,1.58,5,5.15,5,10.16v7.41c0,2.33-.15,4.38.61,5.38h-7.69ZM595,381v15h2.64c2.81,0,4.36-1.2,4.36-5v-4.73c0-3.43-1-5.22-3.68-5.22H595Z" transform="translate(-441 -253.29)"/><path class="cls-1" d="M658,386.29v6.24c0,7.69-4,11.47-11.58,11.47H643v18h-8V374h11.42C654,374,658,378.6,658,386.29ZM643,381v17h3.42c2.4,0,3.58-1.56,3.58-5v-7.21c0-3.43-1.18-4.81-3.58-4.81H643Z" transform="translate(-441 -253.29)"/><path class="cls-1" d="M689,395h11v7H689v14h13v6H682V374h20v7H689v14Z" transform="translate(-441 -253.29)"/><path class="cls-1" d="M734.45,388H734v34h-6V374h9l7.62,29H745V374h6v48h-7.29Z" transform="translate(-441 -253.29)"/><path class="cls-1" d="M775,374h24v7h-8v41h-8V381h-8v-7Z" transform="translate(-441 -253.29)"/><path class="cls-1" d="M830,395h10v7H830v14h13v6H822V374h21v7H830v14Z" transform="translate(-441 -253.29)"/><path class="cls-1" d="M543.86,490.87l-1.39,1.22c-1.68,1.47-3.26,1.6-4.47.22s-0.87-2.93.8-4.4l5.46-4.78c1.68-1.47,3.26-1.6,4.47-.22s0.87,2.93-.8,4.4l-1,.89-1.16-1.33,1.12-1c0.75-.66.79-1.19,0.4-1.63s-0.92-.48-1.67.18l-5.67,5c-0.75.66-.77,1.17-0.38,1.62s0.91,0.49,1.66-.16l1.5-1.31Z" transform="translate(-441 -253.29)"/><path class="cls-1" d="M551.49,491c1.55-1.61,3.15-1.83,4.47-.56s1.16,2.88-.39,4.49l-5,5.23c-1.55,1.61-3.15,1.83-4.47.56s-1.16-2.88.39-4.49Zm-3.78,6.62c-0.69.72-.68,1.25-0.26,1.66s1,0.4,1.65-.32l5.22-5.43c0.69-.72.68-1.25,0.26-1.66s-1-.4-1.65.32Z" transform="translate(-441 -253.29)"/><path class="cls-1" d="M558.6,506.13l0,0,7.14-7,2,1.61-8.66,10.93-1.38-1.1,6.21-7.84,0,0-7.2,7.06-1.38-1.1,5.06-8.58,0,0-6.13,7.73-1.28-1,8.66-10.94,2,1.61Z" transform="translate(-441 -253.29)"/><path class="cls-1" d="M574.85,509.68l-1,1.52c-1.21,1.87-2.64,2.4-4.21,1.38l-0.74-.48-2.85,4.4-1.57-1,7.59-11.71,2.31,1.49C576,506.28,576.07,507.8,574.85,509.68Zm-2.29-3.21-2.57,4,0.74,0.48c0.5,0.32.94,0.23,1.48-.61l1.14-1.76c0.54-.84.44-1.28-0.05-1.6Z" transform="translate(-441 -253.29)"/><path class="cls-1" d="M579.42,524.23l-1.66-.89,0.91-2.39-2-1.08L575.17,522l-1.51-.81,8.24-11.42L584.3,511Zm-1.68-5.91,1.59,0.85,2.54-6.64,0,0Z" transform="translate(-441 -253.29)"/><path class="cls-1" d="M590.42,520.72l2.4,1-1.73,4.07c-0.87,2.05-2.25,2.86-3.93,2.14s-2.06-2.26-1.19-4.32l2.84-6.68c0.87-2.05,2.25-2.86,3.93-2.14s2.06,2.26,1.19,4.32l-0.53,1.25-1.62-.69,0.59-1.38c0.39-.92.19-1.41-0.35-1.64s-1,0-1.43.89l-3,6.93c-0.39.92-.19,1.39,0.36,1.63s1,0,1.42-.87l1-2.37-0.78-.33Z" transform="translate(-441 -253.29)"/><path class="cls-1" d="M600.44,522h0l-3.11,9.62-1.6-.52L600,517.84l2.23,0.72-0.78,8.53h0l2.57-7.95,1.58,0.51-4.29,13.28-1.82-.59Z" transform="translate(-441 -253.29)"/><path class="cls-1" d="M609.76,524.27c0.49-2.18,1.75-3.2,3.54-2.79s2.48,1.87,2,4l-1.61,7.07c-0.49,2.18-1.75,3.2-3.54,2.79s-2.48-1.87-2-4Zm0.18,7.62c-0.22,1,.06,1.42.64,1.56s1-.16,1.25-1.13L613.5,525c0.22-1-.06-1.42-0.64-1.56s-1,.16-1.25,1.13Z" transform="translate(-441 -253.29)"/><path class="cls-1" d="M622.21,527.2h0l-1.35,10-1.66-.22L621,523.16l2.32,0.31L624.1,532h0l1.12-8.27L626.9,524,625,537.78l-1.9-.26Z" transform="translate(-441 -253.29)"/><path class="cls-1" d="M644.28,533.36l0,1.85c0,2.23-.89,3.52-2.72,3.55s-2.8-1.23-2.84-3.46L638.63,528c0-2.23.89-3.52,2.72-3.55s2.8,1.23,2.84,3.46l0,1.36-1.76,0,0-1.49c0-1-.4-1.37-1-1.36s-1,.39-0.94,1.39l0.12,7.53c0,1,.4,1.35,1,1.34s1-.37.94-1.37l0-2Z" transform="translate(-441 -253.29)"/><path class="cls-1" d="M652.42,538.09l-1.86.18-1.33-13.89,1.86-.18,0.57,6,2.11-.2-0.57-6,1.89-.18,1.33,13.89-1.89.18-0.57-6-2.11.2Z" transform="translate(-441 -253.29)"/><path class="cls-1" d="M668.8,535.68L667,536l-0.78-2.43-2.25.42,0.15,2.55-1.68.32-0.7-14.07,2.68-.5Zm-5-3.57,1.77-.33L663.4,525h0Z" transform="translate(-441 -253.29)"/><path class="cls-1" d="M678.37,533.25a5,5,0,0,1-.63-1.6l-0.59-2.11c-0.35-1.25-.84-1.61-1.66-1.38l-0.62.17,1.53,5.47-1.8.5-3.77-13.43,2.71-.76c1.86-.52,2.95.27,3.53,2.34l0.3,1.06c0.39,1.38.26,2.37-.42,3v0c1,0.19,1.6,1.1,2,2.51l0.58,2.07a4.77,4.77,0,0,0,.65,1.58Zm-5.19-11,1.16,4.13,0.7-.2c0.67-.19,1-0.65.68-1.72l-0.37-1.32c-0.27-1-.67-1.3-1.3-1.13Z" transform="translate(-441 -253.29)"/><path class="cls-1" d="M687.49,519l0.64,1.7c0.79,2.09.36,3.55-1.39,4.21l-0.83.31,1.85,4.91-1.75.66-4.92-13.06,2.57-1C685.41,516.12,686.7,516.93,687.49,519Zm-3.94-.07,1.67,4.42,0.83-.31c0.56-.21.74-0.62,0.39-1.55l-0.74-2c-0.35-.93-0.77-1.12-1.32-0.91Z" transform="translate(-441 -253.29)"/><path class="cls-1" d="M694.87,518.4l2.31-1.1,0.86,1.8-2.31,1.1,1.76,3.69,2.91-1.39,0.86,1.8-4.6,2.19-6-12.6,4.6-2.19,0.86,1.8-2.91,1.39Z" transform="translate(-441 -253.29)"/><path class="cls-1" d="M703.12,511.81l0,0,5.13,8.71-1.45.85-7.08-12,2-1.19,5.86,6.24,0,0-4.24-7.19,1.43-.84,7.08,12-1.65,1Z" transform="translate(-441 -253.29)"/><path class="cls-1" d="M708.74,503.8l4.7-3.34,1.16,1.62L713,503.21l6.93,9.74L718.42,514l-6.93-9.74-1.59,1.13Z" transform="translate(-441 -253.29)"/><path class="cls-1" d="M717.21,497.47l1.44-1.19,8.87,10.77-1.44,1.19Z" transform="translate(-441 -253.29)"/><path class="cls-1" d="M728.09,495.77l1.86-1.76,1.37,1.44-1.86,1.77,2.81,3,2.34-2.22L736,499.4l-3.69,3.51-9.61-10.11,3.69-3.51,1.37,1.44L725.41,493Z" transform="translate(-441 -253.29)"/><path class="cls-1" d="M742.91,492a5,5,0,0,1-1.39-1l-1.64-1.46c-1-.86-1.57-0.9-2.14-0.26l-0.43.48,4.25,3.77-1.24,1.39-10.43-9.26,1.87-2.11c1.28-1.45,2.63-1.37,4.23.06l0.82,0.73c1.07,1,1.5,1.85,1.29,2.78l0,0c1-.39,1.94.07,3,1l1.61,1.43a4.76,4.76,0,0,0,1.4,1Zm-10.29-6.42,3.2,2.84,0.48-.55c0.46-.52.48-1.08-0.36-1.82l-1-.91c-0.75-.66-1.26-0.74-1.7-0.24Z" transform="translate(-441 -253.29)"/><path class="cls-1" d="M543.74,294l0,0,9.23,11.27L551,306.86,538.31,291.3l2.61-2.14,9.73,7.6,0,0-7.62-9.31,1.85-1.52,12.74,15.56-2.14,1.75Z" transform="translate(-441 -253.29)"/><path class="cls-1" d="M569.32,293.4l-2.26,1.5-2.4-2.78-2.75,1.82,1.63,3.3-2.06,1.36-8.83-18.27,3.28-2.18Zm-8.64-1.92,2.16-1.43-6.68-7.77,0,0Z" transform="translate(-441 -253.29)"/><path class="cls-1" d="M562.43,274.13l7.31-4,1.37,2.53L568.64,274l8.22,15.15-2.36,1.28-8.22-15.15-2.47,1.34Z" transform="translate(-441 -253.29)"/><path class="cls-1" d="M586.08,284.74l-2.48,1-7.83-18.52,2.48-1,3.36,7.94,2.82-1.19L581.06,265l2.52-1.07,7.83,18.52-2.52,1.07-3.36-7.94-2.82,1.19Z" transform="translate(-441 -253.29)"/><path class="cls-1" d="M604.91,278l-2.59.8-1.52-3.35-3.16,1,0.63,3.62-2.36.73-3.29-20,3.76-1.16Zm-7.74-4.29,2.48-.76-4.21-9.35h0Z" transform="translate(-441 -253.29)"/><path class="cls-1" d="M609.12,262.14h0l2.84,14.28-2.37.47-3.92-19.72,3.31-.66,5,11.27h0L611.63,256l2.35-.47,3.92,19.72-2.71.54Z" transform="translate(-441 -253.29)"/><path class="cls-1" d="M634.72,269.86h0l1.36-16.47,2.47-.1-1.82,20.2-4,.16-3.46-20,2.71-.11Z" transform="translate(-441 -253.29)"/><path class="cls-1" d="M652.33,273.89l-2.71-.14-0.27-3.67-3.3-.17-0.65,3.62-2.47-.13,3.79-19.94,3.93,0.21Zm-5.8-6.69,2.59,0.14-0.74-10.22h0Z" transform="translate(-441 -253.29)"/><path class="cls-1" d="M661.73,260.37h0l-2.21,14.4-2.39-.37,3.06-19.88,3.33,0.51,0.85,12.31h0l1.83-11.9,2.37,0.36-3.06,19.88-2.73-.42Z" transform="translate(-441 -253.29)"/><path class="cls-1" d="M676.91,263.33h0l-3.69,14.09-2.34-.61,5.09-19.45,3.27,0.85-0.42,12.33h0l3-11.64,2.32,0.61L679.08,279l-2.67-.7Z" transform="translate(-441 -253.29)"/><path class="cls-1" d="M693.72,262.68l-5.42,14.53c-0.5,1.35-.18,2,0.62,2.32s1.49,0,2-1.34l5.42-14.53,2.38,0.89-5.35,14.35c-1.12,3-3,4.26-5.52,3.34s-3.11-3.12-2-6.14l5.35-14.35Z" transform="translate(-441 -253.29)"/><path class="cls-1" d="M703.94,276.66l3.13,1.51-1.25,2.59-3.12-1.51-3.62,7.47-2.42-1.17,8.76-18.1,6.4,3.1-1.25,2.59-4-1.93Z" transform="translate(-441 -253.29)"/><path class="cls-1" d="M715.4,282.78l3,1.78L716.9,287l-3-1.78-4.26,7.12L707.35,291l10.32-17.26,6.11,3.65-1.48,2.47-3.8-2.27Z" transform="translate(-441 -253.29)"/><path class="cls-1" d="M726.56,289.54l3,2.17L727.86,294l-3-2.17-3.47,4.76,3.76,2.73-1.69,2.32-5.93-4.32,11.84-16.26,5.93,4.32-1.69,2.32L729.86,285Z" transform="translate(-441 -253.29)"/><path class="cls-1" d="M740.79,289.84l2,1.77-11.35,13,3.33,2.92-1.89,2.16L727.55,305Z" transform="translate(-441 -253.29)"/><path class="cls-2" d="M591,468h-3V451h3v7h4v-7h4v17h-4v-7h-4v7Z" transform="translate(-441 -253.29)"/><path class="cls-2" d="M617.9,468h-3.38l-0.58-3h-4.11l-0.58,3h-3.07l3.41-17h4.9Zm-7.63-5h3.22l-1.58-9h-0.06Z" transform="translate(-441 -253.29)"/><path class="cls-2" d="M636,454.9v0.63c0,1.8-1,2.93-3,3.51v0.05a3.68,3.68,0,0,1,3,3.74v1.43c0,2.71-1.85,3.75-5.2,3.75H626V451h4.59C634.05,451,636,452.19,636,454.9Zm-7-1.9v5h1.19c1.25,0,1.81-.44,1.81-1.85v-1c0-1.25-.32-2.17-1.5-2.17H629Zm0,8v5h1.8c1.13,0,2.2-.52,2.2-1.82v-1.53c0-1.63-1.11-1.65-2.63-1.65H629Z" transform="translate(-441 -253.29)"/><path class="cls-2" d="M644,451h3v17h-3V451Z" transform="translate(-441 -253.29)"/><path class="cls-2" d="M655,451h10v2h-3v15h-4V453h-3v-2Z" transform="translate(-441 -253.29)"/><path class="cls-2" d="M682.42,468H679l-0.58-3h-4.11l-0.58,3h-3.07l3.41-17H679Zm-7.63-5H678l-1.58-9h-0.06Z" transform="translate(-441 -253.29)"/><path class="cls-2" d="M688,451h10v2h-3v15h-4V453h-3v-2Z" transform="translate(-441 -253.29)"/><path class="cls-2" d="M511.28,354.87a1,1,0,0,1-.95-1.31,136.46,136.46,0,0,1,16.87-34.12,1,1,0,0,1,1.65,1.12,134.46,134.46,0,0,0-16.63,33.62A1,1,0,0,1,511.28,354.87Z" transform="translate(-441 -253.29)"/><path class="cls-2" d="M528.34,475.6a1,1,0,0,1-.84-0.45,136.34,136.34,0,0,1-16.1-34.49,1,1,0,0,1,1.91-.58,134.36,134.36,0,0,0,15.87,34A1,1,0,0,1,528.34,475.6Z" transform="translate(-441 -253.29)"/><path class="cls-2" d="M753.43,475.6a1,1,0,0,1-.84-1.54,134.39,134.39,0,0,0,15.56-33.4,1,1,0,0,1,1.9.59,136.38,136.38,0,0,1-15.79,33.9A1,1,0,0,1,753.43,475.6Z" transform="translate(-441 -253.29)"/><path class="cls-2" d="M769.53,354.78a1,1,0,0,1-.95-0.68A134.47,134.47,0,0,0,752,320.57a1,1,0,0,1,1.65-1.12,136.47,136.47,0,0,1,16.84,34A1,1,0,0,1,769.53,354.78Z" transform="translate(-441 -253.29)"/><path class="cls-1" d="M705.38,459h1.81a2.13,2.13,0,0,0-1.81-1.81V459Z" transform="translate(-441 -253.29)"/><path class="cls-1" d="M704.78,459v-1.81A2.13,2.13,0,0,0,703,459h1.81Z" transform="translate(-441 -253.29)"/><path class="cls-1" d="M705.38,459.62v1.81a2.13,2.13,0,0,0,1.81-1.81h-1.81Z" transform="translate(-441 -253.29)"/><path class="cls-1" d="M704.78,459.62H703a2.13,2.13,0,0,0,1.81,1.81v-1.81Z" transform="translate(-441 -253.29)"/><path class="cls-1" d="M578.62,459.06h1.81a2.13,2.13,0,0,0-1.81-1.81v1.81Z" transform="translate(-441 -253.29)"/><path class="cls-1" d="M578,459.06v-1.81a2.13,2.13,0,0,0-1.81,1.81H578Z" transform="translate(-441 -253.29)"/><path class="cls-1" d="M578.62,459.66v1.81a2.13,2.13,0,0,0,1.81-1.81h-1.81Z" transform="translate(-441 -253.29)"/><path class="cls-1" d="M578,459.66h-1.81a2.13,2.13,0,0,0,1.81,1.81v-1.81Z" transform="translate(-441 -253.29)"/><path class="cls-1" d="M662.21,351.79a0.21,0.21,0,0,1-.06-0.41,7.3,7.3,0,0,0,4.08-3.58,0.21,0.21,0,1,1,.37.2,7.58,7.58,0,0,1-4.35,3.79h-0.06Z" transform="translate(-441 -253.29)"/><path class="cls-3" d="M621.27,351.26" transform="translate(-441 -253.29)"/><path class="cls-4" d="M620.44,350.48" transform="translate(-441 -253.29)"/><path class="cls-1" d="M621.89,351.79h-0.06a7.59,7.59,0,0,1-4.35-3.79,0.21,0.21,0,0,1,.37-0.2,7.27,7.27,0,0,0,4.08,3.58A0.21,0.21,0,0,1,621.89,351.79Z" transform="translate(-441 -253.29)"/><path class="cls-1" d="M635.42,322.21a0.19,0.19,0,0,1-.13-0.06l-15.63-15.77a0.19,0.19,0,0,1,.27-0.26l15.63,15.77A0.19,0.19,0,0,1,635.42,322.21Z" transform="translate(-441 -253.29)"/><path class="cls-1" d="M637.21,320.65a0.19,0.19,0,0,1-.13-0.06l-15.44-15.7a0.19,0.19,0,0,1,.27-0.26l15.44,15.7A0.19,0.19,0,0,1,637.21,320.65Z" transform="translate(-441 -253.29)"/><path class="cls-5" d="M656,314.62" transform="translate(-441 -253.29)"/><path class="cls-1" d="M643.85,324.37a0.19,0.19,0,0,1-.14-0.32l7.23-7.46a0.19,0.19,0,1,1,.27.26L644,324.32A0.19,0.19,0,0,1,643.85,324.37Z" transform="translate(-441 -253.29)"/><path class="cls-5" d="M655.73,316.61" transform="translate(-441 -253.29)"/><rect class="cls-1" x="640.08" y="326.96" width="3.88" height="0.38" transform="translate(-497.05 252.48) rotate(-41.35)"/><rect class="cls-1" x="641.05" y="328.37" width="4.88" height="0.38" transform="translate(-498.33 250.97) rotate(-41.12)"/><path class="cls-1" d="M658.74,343.77l-0.76-.49c-4.14-2.67-15.14-12.64-15.25-12.74l0.25-.28c0.1,0.09,9.82,8.9,14.4,12.15-1.39-2-5.06-7.36-6.91-9.16l0.26-.27c2.32,2.26,7.3,9.71,7.51,10Z" transform="translate(-441 -253.29)"/><path class="cls-1" d="M651.43,335.6l-0.49-.17c-1.23-.41-7-6.3-7.28-6.55l0.27-.26a87.34,87.34,0,0,0,6.49,6.06,44.39,44.39,0,0,0-4-5.51l0.27-.26a51,51,0,0,1,4.47,6.25Z" transform="translate(-441 -253.29)"/><path class="cls-1" d="M654.1,339.27c-1.48-.79-5.71-4.69-5.88-4.86l0.26-.28a55.51,55.51,0,0,0,5.81,4.8Z" transform="translate(-441 -253.29)"/><polygon class="cls-1" points="219.47 95.52 208.1 84.33 208.36 84.07 219.73 95.25 219.47 95.52"/><rect class="cls-1" x="657.18" y="338.87" width="0.38" height="10.84" transform="translate(-482.85 339.54) rotate(-47.21)"/><path class="cls-1" d="M662.26,346.25c-0.64-.76-6.26-7.49-6.57-8.28l0.35-.14c0.21,0.56,4,5.19,6.5,8.18Z" transform="translate(-441 -253.29)"/><rect class="cls-1" x="659.51" y="341.97" width="0.38" height="4.72" transform="translate(-525.17 111.7) rotate(-29.15)"/><rect class="cls-1" x="181.35" y="74.21" width="0.38" height="1.2"/><rect class="cls-1" x="182.99" y="74.21" width="0.38" height="1.2"/><rect class="cls-1" x="184.49" y="74.21" width="0.38" height="1.2"/><polygon class="cls-1" points="206.81 75.09 206.19 74.71 223 74.7 223 75.08 206.81 75.09"/><rect class="cls-1" x="179" y="73.71" height="3"/><polygon class="cls-1" points="180 75.71 180 75.71 180 74.71 200.23 74.71 199.84 74.71 180 74.71 180 75.71"/><path class="cls-1" d="M631.65,336.36l0.07-.45c0.47-2.89,3.71-6,4.82-7.12l0.24-.23,0.26,0.27c-0.05.05-3.89,3.51-4.84,6.65,1.32-1,5.46-4.1,6.86-5.88l0.3,0.23c-1.7,2.16-7.12,6.09-7.35,6.25Z" transform="translate(-441 -253.29)"/><path class="cls-1" d="M624.07,344.8l0.16-.48c0.81-2.48,6.87-10.08,7.13-10.4l0.28,0.25c-0.06.07-5.49,6.91-6.84,9.74,2.09-1.31,10.33-6.66,14.32-12.4l0.31,0.21c-4.61,6.63-14.82,12.75-14.92,12.81Z" transform="translate(-441 -253.29)"/><path class="cls-1" d="M629.36,338.94l-0.16-.34c2.74-1.3,10.85-8.94,10.94-9l0.26,0.27C640.06,330.17,632.15,337.62,629.36,338.94Z" transform="translate(-441 -253.29)"/><path class="cls-1" d="M621.15,346.72l-0.3-.23,0.46-.66c1.08-1.57,3.61-5.24,4.56-6.28l0.28,0.25c-0.94,1-3.46,4.68-4.53,6.24Z" transform="translate(-441 -253.29)"/><polygon class="cls-1" points="181.17 94.81 180.87 94.58 185.72 89.77 185.99 90.04 181.17 94.81"/><path class="cls-1" d="M623,348.59l-0.35-.19c0.06-.06,6.14-5.54,7.25-7.28l0.32,0.2C629.07,343.1,623.25,348.35,623,348.59Z" transform="translate(-441 -253.29)"/><path class="cls-1" d="M663.84,345.56l0.1-.68-8.57-9.18-3.17-3.25a0.88,0.88,0,0,0-.85-0.26,1.34,1.34,0,0,1-.93-0.2,2.06,2.06,0,0,1-1-1.74c0-.1,0-0.2,0-0.28a3.44,3.44,0,0,0-.73-1h14.61a1.5,1.5,0,0,0,.83-0.25l1.17-.88a0.34,0.34,0,0,0,.15-0.29,0.27,0.27,0,0,0-.14-0.22l-1.6-.92a1.31,1.31,0,0,0-.62-0.16H645.53c1.14-1.12,2.57-2.67,4-4.18,1.63-1.76,3.31-3.57,4.48-4.66a2.28,2.28,0,0,1,2.56-.25,25.21,25.21,0,0,1,3.35,2.54l0.92,0.77a1.27,1.27,0,0,0,1.7-.09l2.31-2.34,0.3-.33a0.83,0.83,0,0,0,0-1.16c-0.3-.28-0.6-0.56-0.84-0.78a0.9,0.9,0,0,0-1-.09,4.23,4.23,0,0,1-1.72-1.05,6.36,6.36,0,0,1-.59-0.59,29.07,29.07,0,0,0-5.17-4.79c-7.29-4.53-13.53-5.59-15.15-5.6a0.35,0.35,0,0,0-.29.17,0.32,0.32,0,0,0,0,.34,7.5,7.5,0,0,0,2.52,2.31,36.27,36.27,0,0,1,3.76,1.76,14.78,14.78,0,0,1,4.6,3.45,2.21,2.21,0,0,1,0,3c-0.05.06-5.5,5.91-6.51,6.86s-2.62,2.33-3.14,2.78c-1-.81-2.32-1.84-3.29-2.63v-0.41a1.43,1.43,0,0,0-.73-0.86,2.22,2.22,0,0,0,0-.37,2.79,2.79,0,0,0-.83-1.8l-14.19-14.56-3.81,3.31L633,321.39a2.91,2.91,0,0,0,1.81.88,2.36,2.36,0,0,0,.38,0,1.44,1.44,0,0,0,.85.75h0.42c0.73,0.92,1.53,2.13,2.29,3.14l-17.79,0v-1.57h-1.8c-0.22,0-.2.18-0.2,0.4v5c0,0.24.06,0,.3,0H621v-1.07h15.09c-2.59,2.42-15.2,15.75-16,16.59-0.35.21-1.37,0.88-1.36,1.41a1.31,1.31,0,0,0,.19.44A5.59,5.59,0,0,0,622,350a1.68,1.68,0,0,0,.83,0h0a2.31,2.31,0,0,0,1.38-1.17l17.43-17.56c0.55,0.74,2.4,2.75,3,2.89,0.08,0,.18.07,0.29,0.09a2.15,2.15,0,0,1,1.74,1.07,1.29,1.29,0,0,1,.17.93,0.87,0.87,0,0,0,.23.86l3.2,3.26,9,8.71,0.05,0.05,0.7-.23a2.15,2.15,0,0,0,1.34,1.1h0a0.59,0.59,0,0,0,.68,0,5.77,5.77,0,0,0,3-2.77,0.29,0.29,0,0,0,0-.38v0A2.28,2.28,0,0,0,663.84,345.56Zm-0.37-18.88,1.48,0.86-1.1.83a1.13,1.13,0,0,1-.61.18h-15a13.23,13.23,0,0,0-1.92-1.75,1.59,1.59,0,0,0-1-.06l-0.22-.19H663A0.93,0.93,0,0,1,663.48,326.68Zm-18.54-4.91c1-1,6.31-6.64,6.53-6.88a2.62,2.62,0,0,0,0-3.51,15.13,15.13,0,0,0-4.71-3.54,36.66,36.66,0,0,0-3.8-1.78,7,7,0,0,1-2.29-2.1c1.74,0.06,7.79,1.16,14.85,5.54a29.49,29.49,0,0,1,5.08,4.72,6.58,6.58,0,0,0,.62.63,5.2,5.2,0,0,0,1.67,1.08,0.16,0.16,0,0,0,0,.19h0.27l0.06-.08,0,0a0.5,0.5,0,0,1,.68,0c0.24,0.22.54,0.48,0.83,0.77a0.46,0.46,0,0,1,0,.64l-0.29.32L662.23,320a0.89,0.89,0,0,1-1.19.07l-0.91-.77a25.86,25.86,0,0,0-3.41-2.58,2.64,2.64,0,0,0-3,.3c-1.18,1.1-2.87,2.92-4.5,4.68s-3.18,3.44-4.36,4.56l-0.66-.57a0.48,0.48,0,0,0-.41-0.1,0.89,0.89,0,0,1-.45-0.06,12.71,12.71,0,0,1-1.5-1.07C642.43,324,644,322.61,644.94,321.76ZM621,328.55V330h-1.7s-0.06,0-.06,0l0.08-5H621v1.57l18.26,0a11.92,11.92,0,0,1,1.09,1.61,1.29,1.29,0,0,1,.1.39H621Zm1.79,21.55a2.7,2.7,0,0,1-.67-0.18,5.68,5.68,0,0,1-2.86-2.73,2.18,2.18,0,0,1-.13-0.28,2.86,2.86,0,0,1,1.23-1.09l0,0v0c0.17-.18,14.9-15.83,16.37-16.83h3.59s0.08,0.18.16,0.26l0.93,1a1.93,1.93,0,0,0,0,.91L623.89,349h0a0.19,0.19,0,0,0,0,0A2.49,2.49,0,0,1,622.79,350.11Zm42-2.91a6,6,0,0,1-3,2.72,2.89,2.89,0,0,1-.54.19,2.85,2.85,0,0,1-1.07-1.24l-0.05-.09H659.4l-8.93-8.66-3.2-3.25a0.49,0.49,0,0,1-.14-0.48,1.65,1.65,0,0,0-.19-1.2,2.47,2.47,0,0,0-2-1.26l-0.27-.06a13.7,13.7,0,0,1-2.86-2.84,1.23,1.23,0,0,1,0-.79l0-.11L640.78,329a0.25,0.25,0,0,1-.07-0.23,1.34,1.34,0,0,0,0-.68c-0.16-.51-3.31-4.53-3.94-5.33l-0.06-.07h-0.6a1.56,1.56,0,0,1-.59-0.67l-0.06-.11-0.13,0a1.89,1.89,0,0,1-.42,0,2.53,2.53,0,0,1-1.57-.77l-14-14.16,3.24-2.81,13.95,14.3a2.42,2.42,0,0,1,.72,1.56,1.77,1.77,0,0,1,0,.41l0,0.13,0.11,0.07a1.6,1.6,0,0,1,.66.6v0.59l0.07,0.06c0.79,0.65,4.77,3.89,5.29,4.06a1.25,1.25,0,0,0,.65.07,0.1,0.1,0,0,1,.09,0l1.33,1.14,0.1,0a1.33,1.33,0,0,1,.81,0A13.7,13.7,0,0,1,649,330c0,0.08,0,.17,0,0.26a2.44,2.44,0,0,0,1.22,2,1.75,1.75,0,0,0,1.21.23,0.52,0.52,0,0,1,.5.16l3.19,3.25,8.5,9.07,0,0.75,0.09,0.06a2.94,2.94,0,0,1,1.23,1.08A1.59,1.59,0,0,1,664.82,347.2Z" transform="translate(-441 -253.29)"/><path class="cls-1" d="M661,318.39a0.19,0.19,0,0,1-.14-0.32l2.47-2.5a0.19,0.19,0,0,1,.27.27l-2.47,2.5A0.19,0.19,0,0,1,661,318.39Z" transform="translate(-441 -253.29)"/><path class="cls-1" d="M656.34,315.85a3.31,3.31,0,0,1-2-.64,5.22,5.22,0,0,1-1.75-3.19,0.19,0.19,0,0,1,.16-0.21,0.19,0.19,0,0,1,.21.16,4.93,4.93,0,0,0,1.61,2.94,3.16,3.16,0,0,0,2.47.51,0.19,0.19,0,0,1,.22.16,0.19,0.19,0,0,1-.16.22A4.57,4.57,0,0,1,656.34,315.85Z" transform="translate(-441 -253.29)"/><path class="cls-1" d="M653.78,310.56a0.21,0.21,0,0,1-.16-0.07c-2.07-2.42-9.21-4.89-9.28-4.92a0.21,0.21,0,0,1,.14-0.39c0.3,0.1,7.31,2.54,9.46,5A0.21,0.21,0,0,1,653.78,310.56Z" transform="translate(-441 -253.29)"/><path class="cls-1" d="M661.49,317.33a4.24,4.24,0,0,0,.45,0,7.47,7.47,0,0,1-2.47-2.38,0.19,0.19,0,1,1,.32-0.2,7.2,7.2,0,0,0,2.34,2.25,2.74,2.74,0,0,1-.46.26A0.19,0.19,0,0,1,661.49,317.33Z" transform="translate(-441 -253.29)"/><path class="cls-6" d="M664.55,345.27l0-.6-8.77-9.35-3.2-3.25a1.49,1.49,0,0,0-1-.45,1.8,1.8,0,0,0-.39,0,1.25,1.25,0,0,1-.52-0.16,1.55,1.55,0,0,1-.72-1.35c0-.11,0-0.22-0.05-0.31a1.3,1.3,0,0,0-.17-0.39h13.53a2.06,2.06,0,0,0,1.16-.36l1.15-.87a0.87,0.87,0,0,0,.38-0.76,0.81,0.81,0,0,0-.41-0.66l-1.61-.93a1.82,1.82,0,0,0-.87-0.22H646.81c1-1,2-2.15,3.08-3.28,1.62-1.75,3.29-3.55,4.45-4.63a1.61,1.61,0,0,1,1.1-.39,1.63,1.63,0,0,1,.82.2,25.13,25.13,0,0,1,3.28,2.49l0.93,0.78a1.78,1.78,0,0,0,1.14.41,1.83,1.83,0,0,0,1.29-.54l2.31-2.34,0.32-.35a1.37,1.37,0,0,0-.08-1.9c-0.3-.29-0.61-0.56-0.86-0.79a1.44,1.44,0,0,0-1.45-.26,4.57,4.57,0,0,1-1.32-.88,5.23,5.23,0,0,1-.54-0.55,29.19,29.19,0,0,0-5.29-4.65c-7.39-4.59-13.77-5.45-15.42-5.45h0l0-.23a0.79,0.79,0,0,0-.69.34,0.76,0.76,0,0,0,.06.84,7.74,7.74,0,0,0,2.75,2.46,35.67,35.67,0,0,1,3.7,1.73,14.34,14.34,0,0,1,4.46,3.33,1.66,1.66,0,0,1,0,2.29c-0.05.06-5.49,5.9-6.49,6.83-0.77.72-2.23,1.87-2.93,2.48-0.81-.64-1.88-1.42-2.88-2.19v-0.14a1.3,1.3,0,0,0-.57-1.14S638,320,638,320a3.25,3.25,0,0,0-.94-2.15L622.53,302.9l-4.62,4,14.74,14.86a3.46,3.46,0,0,0,2.15,1,1.09,1.09,0,0,0,.14,0,1.45,1.45,0,0,0,1.13.71h0.16a13.34,13.34,0,0,0,1.46,2.11H621.5V324h-2.3a0.76,0.76,0,0,0-.7.93v5c0,0.54.26,0.52,0.8,0.52h2.2v-1h13.38c-2.23,2-7,7.18-14.36,14.86l-0.71.74c-1.07.64-1.6,1.26-1.59,1.84a1.58,1.58,0,0,0,.23.68,6.56,6.56,0,0,0,3.32,3.15,3.33,3.33,0,0,0,1,.26c0.58,0,1.19-.56,1.8-1.62l17-17.21c0.75,0.86,2.2,2.38,2.87,2.55l0.32,0.07a1.61,1.61,0,0,1,1.36.76,1,1,0,0,1,.14.52,1.4,1.4,0,0,0,.36,1.4l3.21,3.26,9.19,8.91,0.62,0.25c0.56,0.88,1.11,1.58,1.65,1.58h0c0.16,0,.38-0.29.89-0.5a7.08,7.08,0,0,0,3.45-3.26,1.72,1.72,0,0,0,.24-0.74C665.87,346.8,665.88,346.15,664.55,345.27Zm1,1.66a5,5,0,0,1-.26.44,6.47,6.47,0,0,1-3.22,2.91,2.32,2.32,0,0,1-.73.23h0c-0.51,0-1.1-.94-1.35-1.35l-0.7,0-0.05,0-9-8.71L647,337.11a0.86,0.86,0,0,1-.23-0.86,1.24,1.24,0,0,0-.17-0.92,2.13,2.13,0,0,0-1.74-1.06l-0.28-.06a12.5,12.5,0,0,1-3-2.83l-17.43,17.69a6,6,0,0,1-.56.84,1.33,1.33,0,0,1-.82.58,2.92,2.92,0,0,1-.82-0.21,6,6,0,0,1-3.05-2.91,1.12,1.12,0,0,1-.17-0.44,3.2,3.2,0,0,1,1.39-1.62c0.81-.84,13.48-13.8,16.07-16.8H621.5v2h-2.2a1,1,0,0,1-.8-0.52v-5a0.77,0.77,0,0,1,.7-0.4h2.3v1.58l17.54,0c-0.77-1-1.76-2.22-2.48-3.14h-0.45a1.46,1.46,0,0,1-.86-0.75,2.35,2.35,0,0,1-.39,0,2.92,2.92,0,0,1-1.82-.88L618.7,306.94l3.81-3.31,14.2,14.56a2.8,2.8,0,0,1,.83,1.81,1.69,1.69,0,0,1,0,.37,1.4,1.4,0,0,1,.73.86v0.41c1,0.79,2.25,1.82,3.29,2.63,0.52-.44,2.21-1.9,3.14-2.78s6.46-6.8,6.51-6.86a2.21,2.21,0,0,0,0-3,14.68,14.68,0,0,0-4.6-3.45,35.92,35.92,0,0,0-3.76-1.76,7.56,7.56,0,0,1-2.51-2.31,0.32,0.32,0,0,1,0-.34,0.33,0.33,0,0,1,.29-0.18c1.61,0,7.86,1.08,15.15,5.6a29.32,29.32,0,0,1,5.16,4.79,5.64,5.64,0,0,0,.59.6,4.17,4.17,0,0,0,1.72,1.05,0.9,0.9,0,0,1,1,.1c0.25,0.22.55,0.49,0.84,0.78a0.83,0.83,0,0,1,0,1.16l-0.31.33-2.31,2.35a1.27,1.27,0,0,1-1.7.09l-0.92-.77a25,25,0,0,0-3.36-2.54,2.29,2.29,0,0,0-2.56.25c-1.17,1.09-2.85,2.91-4.48,4.66-1.39,1.51-2.83,3.06-4,4.18l17.52,0a1.33,1.33,0,0,1,.62.16l1.59,0.93a0.26,0.26,0,0,1,.14.22,0.34,0.34,0,0,1-.14.29l-1.17.88a1.49,1.49,0,0,1-.84.25H648.63a3.42,3.42,0,0,1,.73,1l0,0.28a2.08,2.08,0,0,0,1,1.74,1.37,1.37,0,0,0,.94.2,0.91,0.91,0,0,1,.87.26l3.19,3.25,8.61,9.18,0.07,0.68c0.41,0.25,1.41.86,1.41,1.36h0Z" transform="translate(-441 -253.29)"/><path class="cls-7" d="M665.5,346.92h0a5,5,0,0,1-.26.44,6.47,6.47,0,0,1-3.22,2.91,2.32,2.32,0,0,1-.73.23h0c-0.51,0-1.1-.94-1.35-1.35l-0.7,0-0.05,0-9-8.71L647,337.11a0.86,0.86,0,0,1-.23-0.86,1.24,1.24,0,0,0-.17-0.92,2.13,2.13,0,0,0-1.74-1.06l-0.28-.06a12.5,12.5,0,0,1-3-2.83l-17.43,17.69a6,6,0,0,1-.56.84,1.33,1.33,0,0,1-.82.58,2.92,2.92,0,0,1-.82-0.21,6,6,0,0,1-3.05-2.91,1.12,1.12,0,0,1-.17-0.44,3.2,3.2,0,0,1,1.39-1.62c0.81-.84,13.48-13.8,16.07-16.8H621.5v2h-2.2a1,1,0,0,1-.8-0.52v-5a0.77,0.77,0,0,1,.7-0.4h2.3v1.58l17.54,0c-0.77-1-1.76-2.22-2.48-3.14h-0.45a1.46,1.46,0,0,1-.86-0.75,2.35,2.35,0,0,1-.39,0,2.92,2.92,0,0,1-1.82-.88L618.7,306.94l3.81-3.31,14.2,14.56a2.8,2.8,0,0,1,.83,1.81,1.69,1.69,0,0,1,0,.37,1.4,1.4,0,0,1,.73.86v0.41c1,0.79,2.25,1.82,3.29,2.63,0.52-.44,2.21-1.9,3.14-2.78s6.46-6.8,6.51-6.86a2.21,2.21,0,0,0,0-3,14.68,14.68,0,0,0-4.6-3.45,35.92,35.92,0,0,0-3.76-1.76,7.56,7.56,0,0,1-2.51-2.31,0.32,0.32,0,0,1,0-.34,0.33,0.33,0,0,1,.29-0.18c1.61,0,7.86,1.08,15.15,5.6a29.32,29.32,0,0,1,5.16,4.79,5.64,5.64,0,0,0,.59.6,4.17,4.17,0,0,0,1.72,1.05,0.9,0.9,0,0,1,1,.1c0.25,0.22.55,0.49,0.84,0.78a0.83,0.83,0,0,1,0,1.16l-0.31.33-2.31,2.35a1.27,1.27,0,0,1-1.7.09l-0.92-.77a25,25,0,0,0-3.36-2.54,2.29,2.29,0,0,0-2.56.25c-1.17,1.09-2.85,2.91-4.48,4.66-1.39,1.51-2.83,3.06-4,4.18l17.52,0a1.33,1.33,0,0,1,.62.16l1.59,0.93a0.26,0.26,0,0,1,.14.22,0.34,0.34,0,0,1-.14.29l-1.17.88a1.49,1.49,0,0,1-.84.25H648.63a3.42,3.42,0,0,1,.73,1l0,0.28a2.08,2.08,0,0,0,1,1.74,1.37,1.37,0,0,0,.94.2,0.91,0.91,0,0,1,.87.26l3.19,3.25,8.61,9.18,0.07,0.68C664.5,345.81,665.5,346.42,665.5,346.92Z" transform="translate(-441 -253.29)"/><path class="cls-7" d="M665.5,346.92h0a5,5,0,0,1-.26.44,6.47,6.47,0,0,1-3.22,2.91,2.32,2.32,0,0,1-.73.23h0c-0.51,0-1.1-.94-1.35-1.35l-0.7,0-0.05,0-9-8.71L647,337.11a0.86,0.86,0,0,1-.23-0.86,1.24,1.24,0,0,0-.17-0.92,2.13,2.13,0,0,0-1.74-1.06l-0.28-.06a12.5,12.5,0,0,1-3-2.83l-17.43,17.69a6,6,0,0,1-.56.84,1.33,1.33,0,0,1-.82.58,2.92,2.92,0,0,1-.82-0.21,6,6,0,0,1-3.05-2.91,1.12,1.12,0,0,1-.17-0.44,3.2,3.2,0,0,1,1.39-1.62c0.81-.84,13.48-13.8,16.07-16.8H621.5v2h-2.2a1,1,0,0,1-.8-0.52v-5a0.77,0.77,0,0,1,.7-0.4h2.3v1.58l17.54,0c-0.77-1-1.76-2.22-2.48-3.14h-0.45a1.46,1.46,0,0,1-.86-0.75,2.35,2.35,0,0,1-.39,0,2.92,2.92,0,0,1-1.82-.88L618.7,306.94l3.81-3.31,14.2,14.56a2.8,2.8,0,0,1,.83,1.81,1.69,1.69,0,0,1,0,.37,1.4,1.4,0,0,1,.73.86v0.41c1,0.79,2.25,1.82,3.29,2.63,0.52-.44,2.21-1.9,3.14-2.78s6.46-6.8,6.51-6.86a2.21,2.21,0,0,0,0-3,14.68,14.68,0,0,0-4.6-3.45,35.92,35.92,0,0,0-3.76-1.76,7.56,7.56,0,0,1-2.51-2.31,0.32,0.32,0,0,1,0-.34,0.33,0.33,0,0,1,.29-0.18c1.61,0,7.86,1.08,15.15,5.6a29.32,29.32,0,0,1,5.16,4.79,5.64,5.64,0,0,0,.59.6,4.17,4.17,0,0,0,1.72,1.05,0.9,0.9,0,0,1,1,.1c0.25,0.22.55,0.49,0.84,0.78a0.83,0.83,0,0,1,0,1.16l-0.31.33-2.31,2.35a1.27,1.27,0,0,1-1.7.09l-0.92-.77a25,25,0,0,0-3.36-2.54,2.29,2.29,0,0,0-2.56.25c-1.17,1.09-2.85,2.91-4.48,4.66-1.39,1.51-2.83,3.06-4,4.18l17.52,0a1.33,1.33,0,0,1,.62.16l1.59,0.93a0.26,0.26,0,0,1,.14.22,0.34,0.34,0,0,1-.14.29l-1.17.88a1.49,1.49,0,0,1-.84.25H648.63a3.42,3.42,0,0,1,.73,1l0,0.28a2.08,2.08,0,0,0,1,1.74,1.37,1.37,0,0,0,.94.2,0.91,0.91,0,0,1,.87.26l3.19,3.25,8.61,9.18,0.07,0.68C664.5,345.81,665.5,346.42,665.5,346.92Z" transform="translate(-441 -253.29)"/></svg>